<?xml version="1.0" encoding="UTF-8"?>
<svg width="670.48" height="383.85" viewBox="0 0 670.48 383.85" fill="none" xmlns="http://www.w3.org/2000/svg">
  <title>horizontes-consultoria-symbol-color</title>
  <path d="M 126.42 317.15 C 160.98 317.15 191.22 302.03 217.14 282.59 C 243.06 260.99 268.98 239.39 297.06 232.91 C 325.14 228.59 348.9 241.55 370.5 258.83 C 389.94 273.95 411.54 289.07 433.14 289.07 C 459.06 289.07 482.82 273.95 506.58 263.15 C 532.5 252.35 556.26 256.67 577.86 269.63 C 590.82 278.27 599.46 282.59 603.78 280.43" fill="none" stroke="#6B7F75" stroke-width="5.4" stroke-linecap="round" stroke-linejoin="round" />
<circle cx="221.46" cy="131.39" r="67.39" fill="#CFA45B" />
<path d="M 70.26 302.03 C 109.14 302.03 143.7 254.51 169.62 211.31 C 189.06 178.91 206.34 144.35 230.1 124.91 C 251.7 107.63 271.14 114.11 290.58 137.87 C 310.02 161.63 325.14 189.71 344.58 198.35 C 364.02 206.99 385.62 185.39 402.9 161.63 C 422.34 135.71 443.94 131.39 465.54 155.15 C 493.62 187.55 521.7 237.23 558.42 248.03 C 569.22 252.35 575.7 252.35 571.38 250.19" fill="none" stroke="#102F27" stroke-width="12.53" stroke-linecap="round" stroke-linejoin="round" />
</svg>
