<?xml version="1.0" encoding="UTF-8"?>
<svg width="768.57" height="565.11" viewBox="0 0 768.57 565.11" fill="none" xmlns="http://www.w3.org/2000/svg">
  <title>horizontes-consultoria-primary-color</title>
  <path d="M 141.26 354.62 C 181.48 354.62 216.68 337.03 246.84 314.4 C 277.01 289.26 307.17 264.12 339.85 256.58 C 372.53 251.55 400.19 266.64 425.32 286.75 C 447.95 304.35 473.09 321.94 498.23 321.94 C 528.39 321.94 556.04 304.35 583.7 291.78 C 613.86 279.21 641.52 284.23 666.65 299.32 C 681.74 309.37 691.79 314.4 696.82 311.89" fill="none" stroke="#6B7F75" stroke-width="6.28" stroke-linecap="round" stroke-linejoin="round" />
<circle cx="251.87" cy="138.43" r="78.43" fill="#CFA45B" />
<path d="M 75.9 337.03 C 121.15 337.03 161.37 281.72 191.54 231.44 C 214.16 193.74 234.27 153.52 261.92 130.89 C 287.06 110.78 309.69 118.32 332.31 145.97 C 354.94 173.63 372.53 206.31 395.16 216.36 C 417.78 226.42 442.92 201.28 463.03 173.63 C 485.66 143.46 510.8 138.43 535.93 166.08 C 568.61 203.79 601.29 261.61 644.03 274.18 C 656.6 279.21 664.14 279.21 659.11 276.69" fill="none" stroke="#102F27" stroke-width="14.58" stroke-linecap="round" stroke-linejoin="round" />
<path d="M 138.55 409.96 L 138.55 379.88 Q 138.55 375.65 137.67 373.46 Q 136.8 371.27 134.09 370.39 Q 131.39 369.52 125.7 369.52 L 125.7 369.52 Q 125.26 369.52 125.26 368.64 Q 125.26 367.76 125.7 367.76 L 125.7 367.76 Q 129.2 367.76 133.58 367.98 Q 137.96 368.2 143.37 368.2 L 143.37 368.2 Q 148.18 368.2 152.71 367.98 Q 157.24 367.76 160.59 367.76 L 160.59 367.76 Q 161.03 367.76 161.03 368.64 Q 161.03 369.52 160.59 369.52 L 160.59 369.52 Q 155.19 369.52 152.42 370.32 Q 149.64 371.12 148.77 373.24 Q 147.89 375.36 147.89 379.59 L 147.89 379.59 L 147.89 447.19 Q 147.89 451.42 148.77 453.61 Q 149.64 455.8 152.42 456.53 Q 155.19 457.26 160.59 457.26 L 160.59 457.26 Q 161.03 457.26 161.03 458.14 Q 161.03 459.01 160.59 459.01 L 160.59 459.01 Q 157.24 459.01 152.71 458.87 Q 148.18 458.72 143.37 458.72 L 143.37 458.72 Q 137.96 458.72 133.58 458.87 Q 129.2 459.01 125.7 459.01 L 125.7 459.01 Q 125.26 459.01 125.26 458.14 Q 125.26 457.26 125.7 457.26 L 125.7 457.26 Q 131.39 457.26 134.09 456.53 Q 136.8 455.8 137.67 453.61 Q 138.55 451.42 138.55 447.19 L 138.55 447.19 L 138.55 413.02 L 82.48 413.02 L 82.48 447.19 Q 82.48 451.42 83.36 453.61 Q 84.24 455.8 87.08 456.53 Q 89.93 457.26 95.33 457.26 L 95.33 457.26 Q 95.62 457.26 95.62 458.14 Q 95.62 459.01 95.33 459.01 L 95.33 459.01 Q 91.68 459.01 87.38 458.87 Q 83.07 458.72 77.67 458.72 L 77.67 458.72 Q 72.85 458.72 68.32 458.87 Q 63.8 459.01 60.29 459.01 L 60.29 459.01 Q 60 459.01 60 458.14 Q 60 457.26 60.29 457.26 L 60.29 457.26 Q 65.69 457.26 68.47 456.53 Q 71.24 455.8 72.19 453.61 Q 73.14 451.42 73.14 447.19 L 73.14 447.19 L 73.14 379.59 Q 73.14 375.36 72.19 373.24 Q 71.24 371.12 68.54 370.32 Q 65.84 369.52 60.44 369.52 L 60.44 369.52 Q 60.15 369.52 60.15 368.64 Q 60.15 367.76 60.44 367.76 L 60.44 367.76 Q 63.94 367.76 68.39 367.98 Q 72.85 368.2 77.67 368.2 L 77.67 368.2 Q 83.07 368.2 87.45 367.98 Q 91.83 367.76 95.33 367.76 L 95.33 367.76 Q 95.62 367.76 95.62 368.64 Q 95.62 369.52 95.33 369.52 L 95.33 369.52 Q 89.93 369.52 87.16 370.39 Q 84.38 371.27 83.43 373.46 Q 82.48 375.65 82.48 379.88 L 82.48 379.88 L 82.48 409.96 L 138.55 409.96 Z M 202.32 460.91 L 202.32 460.91 Q 193.71 460.91 187.28 456.68 Q 180.86 452.44 177.36 445.36 Q 173.85 438.28 173.85 430.11 L 173.85 430.11 Q 173.85 422.51 176.63 416.97 Q 179.4 411.42 184.07 407.84 Q 188.74 404.26 194.22 402.51 Q 199.69 400.76 204.95 400.76 L 204.95 400.76 Q 213.86 400.76 220.21 405.14 Q 226.56 409.52 229.92 416.38 Q 233.27 423.24 233.27 430.84 L 233.27 430.84 Q 233.27 440.18 229.04 446.9 Q 224.81 453.61 217.8 457.26 Q 210.79 460.91 202.32 460.91 Z M 206.56 458.14 L 206.56 458.14 Q 214.29 458.14 218.82 452.66 Q 223.35 447.19 223.35 434.92 L 223.35 434.92 Q 223.35 425.73 220.35 418.65 Q 217.36 411.56 212.1 407.55 Q 206.85 403.53 200.13 403.53 L 200.13 403.53 Q 192.39 403.53 188.01 409.23 Q 183.63 414.92 183.63 425.58 L 183.63 425.58 Q 183.63 434.49 186.55 441.93 Q 189.47 449.38 194.66 453.76 Q 199.84 458.14 206.56 458.14 Z M 247.7 459.01 L 247.7 459.01 Q 247.26 459.01 247.26 458.14 Q 247.26 457.26 247.7 457.26 L 247.7 457.26 Q 253.39 457.26 255.07 455.29 Q 256.75 453.32 256.75 447.19 L 256.75 447.19 L 256.75 418.28 Q 256.75 413.46 255.66 411.2 Q 254.56 408.94 251.64 408.94 L 251.64 408.94 Q 250.18 408.94 248.21 409.52 Q 246.24 410.1 243.76 411.13 L 243.76 411.13 Q 243.17 411.27 242.81 410.54 Q 242.44 409.81 243.03 409.52 L 243.03 409.52 L 259.96 401.49 Q 260.4 401.34 260.84 401.34 L 260.84 401.34 Q 261.86 401.34 263.47 404.41 Q 265.07 407.48 265.07 413.32 L 265.07 413.32 L 265.07 413.46 Q 268.14 409.96 270.33 407.62 L 270.33 407.62 Q 273.83 404.12 276.39 402.73 Q 278.94 401.34 281.28 401.34 L 281.28 401.34 Q 284.35 401.34 287.34 403.1 Q 290.33 404.85 290.33 407.33 L 290.33 407.33 Q 290.33 409.23 289.09 410.54 Q 287.85 411.86 285.51 411.86 L 285.51 411.86 Q 283.62 411.86 282.3 410.69 Q 280.99 409.52 279.53 408.5 Q 278.07 407.48 275.73 407.48 L 275.73 407.48 Q 274.42 407.48 272.96 408.21 Q 271.5 408.94 269.02 411.42 L 269.02 411.42 Q 267.41 413.17 265.07 415.8 L 265.07 415.8 L 265.07 447.19 Q 265.07 451.28 266.1 453.54 Q 267.12 455.8 270.18 456.53 Q 273.25 457.26 279.24 457.26 L 279.24 457.26 Q 279.82 457.26 279.82 458.14 Q 279.82 459.01 279.24 459.01 L 279.24 459.01 Q 275.73 459.01 270.99 458.87 Q 266.24 458.72 260.99 458.72 L 260.99 458.72 Q 257.19 458.72 253.69 458.87 Q 250.18 459.01 247.7 459.01 Z M 304.61 459.01 L 304.61 459.01 Q 304.32 459.01 304.32 458.14 Q 304.32 457.26 304.61 457.26 L 304.61 457.26 Q 310.31 457.26 312.13 455.29 Q 313.96 453.32 313.96 447.19 L 313.96 447.19 L 313.96 419.89 Q 313.96 414.78 312.93 412.37 Q 311.91 409.96 309.14 409.96 L 309.14 409.96 Q 307.97 409.96 306.36 410.47 Q 304.76 410.98 302.57 412 L 302.57 412 Q 301.98 412.15 301.62 411.35 Q 301.25 410.54 301.69 410.25 L 301.69 410.25 L 320.67 401.49 Q 321.11 401.34 321.26 401.34 L 321.26 401.34 Q 321.55 401.34 321.99 401.71 Q 322.42 402.07 322.42 402.51 L 322.42 402.51 Q 322.42 403.68 322.28 408.21 Q 322.13 412.73 322.13 419.74 L 322.13 419.74 L 322.13 447.19 Q 322.13 453.32 323.81 455.29 Q 325.49 457.26 331.33 457.26 L 331.33 457.26 Q 331.77 457.26 331.77 458.14 Q 331.77 459.01 331.33 459.01 L 331.33 459.01 Q 328.7 459.01 325.27 458.87 Q 321.84 458.72 318.04 458.72 L 318.04 458.72 Q 314.25 458.72 310.82 458.87 Q 307.39 459.01 304.61 459.01 Z M 316.88 384.26 L 316.88 384.26 Q 313.96 384.26 312.2 382.66 Q 310.45 381.05 310.45 378.13 L 310.45 378.13 Q 310.45 375.21 312.2 373.6 Q 313.96 372 316.88 372 L 316.88 372 Q 319.8 372 321.4 373.6 Q 323.01 375.21 323.01 378.13 L 323.01 378.13 Q 323.01 384.26 316.88 384.26 Z M 345.46 457.26 L 345.46 457.26 L 380.5 405.58 Q 380.8 405.14 380.65 404.85 L 380.65 404.85 Q 380.5 404.56 379.77 404.56 L 379.77 404.56 Q 369.12 404.56 362.55 405.51 Q 355.98 406.45 352.4 409.23 Q 348.82 412 347.07 417.55 L 347.07 417.55 Q 346.92 417.99 346.19 417.7 L 346.19 417.7 Q 345.46 417.55 345.46 417.4 L 345.46 417.4 Q 345.46 417.26 345.46 417.26 L 345.46 417.26 L 350.43 398.42 Q 350.57 398.13 351.45 398.13 L 351.45 398.13 Q 352.03 398.28 352.03 398.42 L 352.03 398.42 Q 352.18 398.42 352.03 398.57 L 352.03 398.57 Q 351.45 401.05 353.13 401.86 Q 354.81 402.66 359.04 402.66 L 359.04 402.66 L 389.99 402.66 Q 390.58 402.66 391.02 403.24 Q 391.45 403.83 391.16 404.41 L 391.16 404.41 L 356.71 455.8 Q 356.41 456.24 356.56 456.53 L 356.56 456.53 Q 356.71 456.82 357.44 456.82 L 357.44 456.82 Q 367.51 456.82 373.57 456.39 Q 379.63 455.95 382.99 454.56 Q 386.34 453.17 388.17 450.25 Q 389.99 447.33 391.6 442.37 L 391.6 442.37 Q 391.75 442.08 392.48 442.08 Q 393.21 442.08 393.21 442.37 L 393.21 442.37 L 392.91 457.41 Q 392.91 457.99 392.55 458.5 Q 392.18 459.01 391.6 459.01 L 391.6 459.01 L 346.49 459.01 Q 345.9 459.01 345.54 458.43 Q 345.17 457.85 345.46 457.26 Z M 434.79 460.91 L 434.79 460.91 Q 426.17 460.91 419.75 456.68 Q 413.33 452.44 409.82 445.36 Q 406.32 438.28 406.32 430.11 L 406.32 430.11 Q 406.32 422.51 409.09 416.97 Q 411.87 411.42 416.54 407.84 Q 421.21 404.26 426.69 402.51 Q 432.16 400.76 437.42 400.76 L 437.42 400.76 Q 446.32 400.76 452.67 405.14 Q 459.02 409.52 462.38 416.38 Q 465.74 423.24 465.74 430.84 L 465.74 430.84 Q 465.74 440.18 461.51 446.9 Q 457.27 453.61 450.26 457.26 Q 443.26 460.91 434.79 460.91 Z M 439.02 458.14 L 439.02 458.14 Q 446.76 458.14 451.29 452.66 Q 455.81 447.19 455.81 434.92 L 455.81 434.92 Q 455.81 425.73 452.82 418.65 Q 449.83 411.56 444.57 407.55 Q 439.31 403.53 432.6 403.53 L 432.6 403.53 Q 424.86 403.53 420.48 409.23 Q 416.1 414.92 416.1 425.58 L 416.1 425.58 Q 416.1 434.49 419.02 441.93 Q 421.94 449.38 427.12 453.76 Q 432.31 458.14 439.02 458.14 Z M 519.44 459.01 L 519.44 459.01 Q 519 459.01 519 458.14 Q 519 457.26 519.44 457.26 L 519.44 457.26 Q 525.13 457.26 526.81 455.29 Q 528.49 453.32 528.49 447.19 L 528.49 447.19 L 528.49 423.54 Q 528.49 414.78 525.28 410.76 Q 522.07 406.75 515.06 406.75 L 515.06 406.75 Q 509.8 406.75 504.26 410.1 L 504.26 410.1 Q 500.61 412.29 497.54 415.65 L 497.54 415.65 L 497.54 447.19 Q 497.54 453.32 499.22 455.29 Q 500.9 457.26 506.59 457.26 L 506.59 457.26 Q 507.03 457.26 507.03 458.14 Q 507.03 459.01 506.59 459.01 L 506.59 459.01 Q 504.11 459.01 500.68 458.87 Q 497.25 458.72 493.45 458.72 Q 489.66 458.72 486.15 458.87 Q 482.65 459.01 480.17 459.01 L 480.17 459.01 Q 479.73 459.01 479.73 458.14 Q 479.73 457.26 480.17 457.26 L 480.17 457.26 Q 485.86 457.26 487.54 455.29 Q 489.22 453.32 489.22 447.19 L 489.22 447.19 L 489.22 418.28 Q 489.22 413.46 488.12 411.2 Q 487.03 408.94 484.11 408.94 L 484.11 408.94 Q 482.65 408.94 480.68 409.52 Q 478.71 410.1 476.22 411.13 L 476.22 411.13 Q 475.64 411.27 475.27 410.54 Q 474.91 409.81 475.49 409.52 L 475.49 409.52 L 492.43 401.49 Q 492.87 401.34 493.31 401.34 L 493.31 401.34 Q 494.33 401.34 495.93 404.41 Q 497.54 407.48 497.54 413.32 L 497.54 413.32 L 497.54 413.32 Q 502.21 407.91 507.03 404.85 L 507.03 404.85 Q 513.31 400.76 519.88 400.76 L 519.88 400.76 Q 527.91 400.76 532.36 405.21 Q 536.81 409.67 536.81 418.57 L 536.81 418.57 L 536.81 447.19 Q 536.81 453.32 538.49 455.29 Q 540.17 457.26 545.87 457.26 L 545.87 457.26 Q 546.3 457.26 546.3 458.14 Q 546.3 459.01 545.87 459.01 L 545.87 459.01 Q 543.38 459.01 539.95 458.87 Q 536.52 458.72 532.73 458.72 Q 528.93 458.72 525.43 458.87 Q 521.92 459.01 519.44 459.01 Z M 579.13 460.77 L 579.13 460.77 Q 575.62 460.77 572.41 459.67 Q 569.2 458.58 567.15 455.95 Q 565.11 453.32 565.11 448.79 L 565.11 448.79 L 565.11 414.48 Q 565.11 410.98 564.67 409.23 Q 564.23 407.48 562.63 406.97 Q 561.02 406.45 557.66 406.45 L 557.66 406.45 Q 557.08 406.45 557.08 405.51 Q 557.08 404.56 557.66 404.56 L 557.66 404.56 Q 563.5 404.41 567.23 401.34 Q 570.95 398.28 571.39 393.46 L 571.39 393.46 Q 571.39 393.02 572.48 393.02 Q 573.58 393.02 573.58 393.46 L 573.58 393.46 L 573.58 404.26 Q 578.1 404.12 582.34 403.83 L 582.34 403.83 Q 587.74 403.39 593.87 402.8 L 593.87 402.8 Q 594.16 402.8 594.53 403.83 Q 594.89 404.85 594.89 406.31 L 594.89 406.31 Q 594.89 407.33 594.38 408.64 Q 593.87 409.96 593.29 409.81 L 593.29 409.81 Q 587.59 408.35 582.34 407.91 L 582.34 407.91 Q 578.25 407.62 573.58 407.48 L 573.58 407.48 L 573.58 443.83 Q 573.58 449.82 576.57 452.74 Q 579.56 455.66 585.11 455.66 L 585.11 455.66 Q 588.91 455.66 591.9 454.42 Q 594.89 453.17 596.79 451.57 L 596.79 451.57 Q 597.38 451.28 597.96 451.86 L 597.96 451.86 Q 598.11 452.3 598.11 452.59 L 598.11 452.59 Q 598.11 452.88 597.81 453.03 L 597.81 453.03 Q 592.41 457.12 588.11 458.94 Q 583.8 460.77 579.13 460.77 Z M 635.6 460.77 L 635.6 460.77 Q 626.84 460.77 620.85 456.75 Q 614.87 452.74 611.88 446.31 Q 608.88 439.89 608.88 432.73 L 608.88 432.73 Q 608.88 423.83 612.97 416.75 Q 617.06 409.67 624.14 405.51 Q 631.22 401.34 639.69 401.34 L 639.69 401.34 Q 648.01 401.34 652.32 405.72 Q 656.62 410.1 656.62 417.99 L 656.62 417.99 Q 656.62 419.89 656.26 420.84 Q 655.89 421.78 654.87 421.78 L 654.87 421.78 L 648.89 421.78 L 618.81 421.93 Q 618.52 424.41 618.52 427.19 L 618.52 427.19 Q 618.52 435.51 621.15 441.93 Q 623.77 448.36 628.88 452.01 Q 633.99 455.66 641.29 455.66 L 641.29 455.66 Q 646.26 455.66 649.47 454.2 Q 652.68 452.74 655.89 450.84 L 655.89 450.84 Q 655.89 450.84 656.04 450.69 L 656.04 450.69 Q 656.33 450.69 656.77 451.13 L 656.77 451.13 Q 657.21 451.86 656.92 452.3 L 656.92 452.3 Q 651.81 456.82 646.48 458.8 Q 641.15 460.77 635.6 460.77 Z M 619.1 420.03 L 646.84 419.45 Q 646.84 412.29 644.07 408.5 L 644.07 408.5 Q 640.86 404.26 634.87 404.26 L 634.87 404.26 Q 627.13 404.26 622.9 410.4 L 622.9 410.4 Q 620.12 414.34 619.1 420.03 L 619.1 420.03 Z M 680.39 411.56 L 680.39 411.56 Q 680.39 415.36 682.37 417.99 Q 684.34 420.62 687.33 422.44 Q 690.32 424.27 693.68 426.02 L 693.68 426.02 Q 697.48 427.92 700.83 430.03 Q 704.19 432.15 706.38 435.14 Q 708.57 438.14 708.57 442.95 L 708.57 442.95 Q 708.57 447.63 706.24 451.64 Q 703.9 455.66 699.3 458.14 Q 694.7 460.62 687.99 460.62 L 687.99 460.62 Q 684.34 460.62 680.98 459.67 Q 677.62 458.72 673.97 456.24 L 673.97 456.24 Q 673.68 455.95 673.39 455.51 Q 673.09 455.07 673.09 454.49 L 673.09 454.49 L 672.8 443.1 Q 672.8 442.66 673.61 442.59 Q 674.41 442.52 674.55 442.95 L 674.55 442.95 Q 676.31 447.92 678.93 451.2 Q 681.56 454.49 684.92 456.17 Q 688.28 457.85 692.07 457.85 L 692.07 457.85 Q 696.75 457.85 699.3 455.51 Q 701.86 453.17 701.71 448.65 L 701.71 448.65 Q 701.56 444.41 699.52 441.79 Q 697.48 439.16 694.48 437.33 Q 691.49 435.51 688.28 433.9 L 688.28 433.9 Q 684.63 432.15 681.34 430.18 Q 678.06 428.21 675.94 425.14 Q 673.82 422.08 673.82 417.11 L 673.82 417.11 Q 673.82 411.42 676.74 407.84 Q 679.66 404.26 684.19 402.59 Q 688.72 400.91 693.68 400.91 L 693.68 400.91 Q 696.45 400.91 699.08 401.34 Q 701.71 401.78 704.34 403.1 L 704.34 403.1 Q 705.65 403.53 705.65 404.7 L 705.65 404.7 Q 705.65 407.04 705.51 409.59 Q 705.36 412.15 705.36 415.36 L 705.36 415.36 Q 705.36 415.65 704.48 415.65 Q 703.61 415.65 703.61 415.36 L 703.61 415.36 Q 703.61 412 701.27 409.37 Q 698.94 406.75 695.43 405.21 Q 691.93 403.68 688.42 403.68 L 688.42 403.68 Q 684.92 403.68 682.66 405.58 Q 680.39 407.48 680.39 411.56 Z" fill="#102F27" />
<path d="M 233.2 505.11 L 233.2 505.11 Q 230.72 505.11 228.62 504.29 Q 226.53 503.47 225 501.96 Q 223.46 500.46 222.59 498.44 Q 221.73 496.43 221.73 494.01 L 221.73 494.01 Q 221.73 491.59 222.59 489.58 Q 223.46 487.56 225.01 486.06 Q 226.56 484.56 228.65 483.73 Q 230.75 482.91 233.23 482.91 L 233.23 482.91 Q 235.74 482.91 237.86 483.77 Q 239.99 484.62 241.47 486.29 L 241.47 486.29 L 239.46 488.24 Q 238.22 486.94 236.67 486.31 Q 235.12 485.67 233.35 485.67 L 233.35 485.67 Q 231.52 485.67 229.96 486.29 Q 228.39 486.91 227.24 488.03 Q 226.1 489.14 225.46 490.68 Q 224.83 492.21 224.83 494.01 L 224.83 494.01 Q 224.83 495.81 225.46 497.34 Q 226.1 498.88 227.24 499.99 Q 228.39 501.11 229.96 501.73 Q 231.52 502.35 233.35 502.35 L 233.35 502.35 Q 235.12 502.35 236.67 501.71 Q 238.22 501.08 239.46 499.75 L 239.46 499.75 L 241.47 501.7 Q 239.99 503.37 237.86 504.24 Q 235.74 505.11 233.2 505.11 Z M 264.59 505.11 L 264.59 505.11 Q 262.11 505.11 259.99 504.27 Q 257.87 503.43 256.32 501.93 Q 254.77 500.43 253.9 498.41 Q 253.03 496.4 253.03 494.01 L 253.03 494.01 Q 253.03 491.62 253.9 489.61 Q 254.77 487.59 256.32 486.09 Q 257.87 484.59 259.97 483.75 Q 262.08 482.91 264.59 482.91 L 264.59 482.91 Q 267.07 482.91 269.16 483.73 Q 271.26 484.56 272.82 486.06 Q 274.39 487.56 275.24 489.58 Q 276.09 491.59 276.09 494.01 L 276.09 494.01 Q 276.09 496.43 275.24 498.44 Q 274.39 500.46 272.82 501.96 Q 271.26 503.47 269.16 504.29 Q 267.07 505.11 264.59 505.11 Z M 264.59 502.35 L 264.59 502.35 Q 266.39 502.35 267.92 501.73 Q 269.46 501.11 270.59 499.98 Q 271.72 498.85 272.36 497.33 Q 272.99 495.81 272.99 494.01 L 272.99 494.01 Q 272.99 492.21 272.36 490.69 Q 271.72 489.17 270.59 488.04 Q 269.46 486.91 267.92 486.29 Q 266.39 485.67 264.59 485.67 L 264.59 485.67 Q 262.76 485.67 261.23 486.29 Q 259.69 486.91 258.55 488.04 Q 257.4 489.17 256.76 490.69 Q 256.13 492.21 256.13 494.01 L 256.13 494.01 Q 256.13 495.81 256.76 497.33 Q 257.4 498.85 258.55 499.98 Q 259.69 501.11 261.23 501.73 Q 262.76 502.35 264.59 502.35 Z M 293.14 504.86 L 290.04 504.86 L 290.04 483.16 L 292.58 483.16 L 305.6 499.34 L 305.6 483.16 L 308.7 483.16 L 308.7 504.86 L 306.16 504.86 L 293.14 488.68 L 293.14 504.86 Z M 330.73 505.11 L 330.73 505.11 Q 328.25 505.11 325.99 504.35 Q 323.73 503.59 322.42 502.38 L 322.42 502.38 L 323.57 499.96 Q 324.81 501.05 326.73 501.76 Q 328.66 502.47 330.73 502.47 L 330.73 502.47 Q 332.62 502.47 333.8 502.04 Q 334.98 501.61 335.54 500.85 Q 336.1 500.09 336.1 499.13 L 336.1 499.13 Q 336.1 498.01 335.37 497.33 Q 334.64 496.65 333.48 496.23 Q 332.31 495.81 330.92 495.5 Q 329.52 495.19 328.11 494.77 Q 326.7 494.35 325.54 493.7 Q 324.38 493.05 323.66 491.95 Q 322.95 490.85 322.95 489.11 L 322.95 489.11 Q 322.95 487.44 323.83 486.03 Q 324.72 484.62 326.56 483.77 Q 328.41 482.91 331.26 482.91 L 331.26 482.91 Q 333.15 482.91 335.01 483.41 Q 336.87 483.9 338.23 484.83 L 338.23 484.83 L 337.21 487.31 Q 335.82 486.38 334.27 485.97 Q 332.72 485.55 331.26 485.55 L 331.26 485.55 Q 329.43 485.55 328.25 486.01 Q 327.07 486.48 326.53 487.25 Q 325.99 488.03 325.99 488.99 L 325.99 488.99 Q 325.99 490.14 326.72 490.82 Q 327.45 491.5 328.61 491.9 Q 329.77 492.31 331.17 492.63 Q 332.56 492.96 333.97 493.36 Q 335.38 493.76 336.54 494.41 Q 337.71 495.06 338.42 496.15 Q 339.13 497.23 339.13 498.94 L 339.13 498.94 Q 339.13 500.58 338.23 501.99 Q 337.34 503.4 335.46 504.26 Q 333.58 505.11 330.73 505.11 Z M 361.85 505.11 L 361.85 505.11 Q 357.57 505.11 355.12 502.66 Q 352.67 500.21 352.67 495.5 L 352.67 495.5 L 352.67 483.16 L 355.77 483.16 L 355.77 495.37 Q 355.77 499 357.37 500.68 Q 358.97 502.35 361.88 502.35 L 361.88 502.35 Q 364.83 502.35 366.42 500.68 Q 368.02 499 368.02 495.37 L 368.02 495.37 L 368.02 483.16 L 371.03 483.16 L 371.03 495.5 Q 371.03 500.21 368.59 502.66 Q 366.16 505.11 361.85 505.11 Z M 401.43 504.86 L 386.58 504.86 L 386.58 483.16 L 389.68 483.16 L 389.68 502.16 L 401.43 502.16 L 401.43 504.86 Z M 421.57 504.86 L 418.5 504.86 L 418.5 485.86 L 411.06 485.86 L 411.06 483.16 L 429.01 483.16 L 429.01 485.86 L 421.57 485.86 L 421.57 504.86 Z M 451.39 505.11 L 451.39 505.11 Q 448.91 505.11 446.78 504.27 Q 444.66 503.43 443.11 501.93 Q 441.56 500.43 440.69 498.41 Q 439.82 496.4 439.82 494.01 L 439.82 494.01 Q 439.82 491.62 440.69 489.61 Q 441.56 487.59 443.11 486.09 Q 444.66 484.59 446.77 483.75 Q 448.88 482.91 451.39 482.91 L 451.39 482.91 Q 453.87 482.91 455.96 483.73 Q 458.05 484.56 459.62 486.06 Q 461.18 487.56 462.04 489.58 Q 462.89 491.59 462.89 494.01 L 462.89 494.01 Q 462.89 496.43 462.04 498.44 Q 461.18 500.46 459.62 501.96 Q 458.05 503.47 455.96 504.29 Q 453.87 505.11 451.39 505.11 Z M 451.39 502.35 L 451.39 502.35 Q 453.18 502.35 454.72 501.73 Q 456.25 501.11 457.39 499.98 Q 458.52 498.85 459.15 497.33 Q 459.79 495.81 459.79 494.01 L 459.79 494.01 Q 459.79 492.21 459.15 490.69 Q 458.52 489.17 457.39 488.04 Q 456.25 486.91 454.72 486.29 Q 453.18 485.67 451.39 485.67 L 451.39 485.67 Q 449.56 485.67 448.02 486.29 Q 446.49 486.91 445.34 488.04 Q 444.19 489.17 443.56 490.69 Q 442.92 492.21 442.92 494.01 L 442.92 494.01 Q 442.92 495.81 443.56 497.33 Q 444.19 498.85 445.34 499.98 Q 446.49 501.11 448.02 501.73 Q 449.56 502.35 451.39 502.35 Z M 479.93 504.86 L 476.83 504.86 L 476.83 483.16 L 485.29 483.16 Q 489.51 483.16 491.93 485.16 Q 494.35 487.16 494.35 490.72 L 494.35 490.72 Q 494.35 493.08 493.26 494.77 Q 492.18 496.46 490.16 497.36 L 490.16 497.36 Q 489.88 497.48 489.57 497.61 L 489.57 497.61 L 494.72 504.86 L 491.34 504.86 L 486.66 498.2 Q 486.01 498.26 485.29 498.26 L 485.29 498.26 L 479.93 498.26 L 479.93 504.86 Z M 479.93 485.86 L 479.93 495.62 L 485.2 495.62 Q 488.18 495.62 489.71 494.34 Q 491.25 493.05 491.25 490.72 Q 491.25 488.4 489.71 487.13 Q 488.18 485.86 485.2 485.86 L 485.2 485.86 L 479.93 485.86 Z M 511.67 504.86 L 508.57 504.86 L 508.57 483.16 L 511.67 483.16 L 511.67 504.86 Z M 527.28 504.86 L 524.09 504.86 L 533.92 483.16 L 536.99 483.16 L 546.85 504.86 L 543.59 504.86 L 541.2 499.44 L 529.67 499.44 L 527.28 504.86 Z M 530.76 496.96 L 540.12 496.96 L 535.44 486.32 L 530.76 496.96 Z" fill="#6B7F75" />
</svg>
