<?xml version="1.0" encoding="UTF-8"?>
<svg width="758.42" height="565.48" viewBox="0 0 758.42 565.48" fill="none" xmlns="http://www.w3.org/2000/svg">
  <title>horizontes-consultoria-stacked-color</title>
  <path d="M 142.7 358.72 C 181.85 358.72 216.1 341.6 245.45 319.58 C 274.81 295.12 304.17 270.65 335.97 263.31 C 367.77 258.42 394.69 273.1 419.15 292.67 C 441.17 309.79 465.63 326.92 490.1 326.92 C 519.45 326.92 546.36 309.79 573.28 297.56 C 602.63 285.33 629.54 290.22 654.01 304.9 C 668.69 314.69 678.47 319.58 683.37 317.13" fill="none" stroke="#6B7F75" stroke-width="6.12" stroke-linecap="round" stroke-linejoin="round" />
<circle cx="250.35" cy="148.33" r="76.33" fill="#CFA45B" />
<path d="M 79.09 341.6 C 123.13 341.6 162.27 287.78 191.63 238.85 C 213.65 202.15 233.22 163.01 260.13 140.99 C 284.6 121.42 306.61 128.76 328.63 155.67 C 350.65 182.58 367.77 214.38 389.79 224.17 C 411.81 233.95 436.28 209.49 455.85 182.58 C 477.86 153.22 502.33 148.33 526.79 175.24 C 558.6 211.94 590.4 268.2 631.99 280.44 C 644.22 285.33 651.56 285.33 646.67 282.88" fill="none" stroke="#102F27" stroke-width="14.19" stroke-linecap="round" stroke-linejoin="round" />
<path d="M 160.47 407.35 L 160.47 380.57 Q 160.47 376.8 159.69 374.85 Q 158.91 372.9 156.51 372.12 Q 154.1 371.34 149.03 371.34 L 149.03 371.34 Q 148.64 371.34 148.64 370.56 Q 148.64 369.78 149.03 369.78 L 149.03 369.78 Q 152.15 369.78 156.05 369.98 Q 159.95 370.17 164.76 370.17 L 164.76 370.17 Q 169.05 370.17 173.08 369.98 Q 177.11 369.78 180.1 369.78 L 180.1 369.78 Q 180.49 369.78 180.49 370.56 Q 180.49 371.34 180.1 371.34 L 180.1 371.34 Q 175.29 371.34 172.82 372.06 Q 170.35 372.77 169.57 374.66 Q 168.79 376.54 168.79 380.31 L 168.79 380.31 L 168.79 440.5 Q 168.79 444.27 169.57 446.22 Q 170.35 448.17 172.82 448.82 Q 175.29 449.47 180.1 449.47 L 180.1 449.47 Q 180.49 449.47 180.49 450.25 Q 180.49 451.03 180.1 451.03 L 180.1 451.03 Q 177.11 451.03 173.08 450.9 Q 169.05 450.77 164.76 450.77 L 164.76 450.77 Q 159.95 450.77 156.05 450.9 Q 152.15 451.03 149.03 451.03 L 149.03 451.03 Q 148.64 451.03 148.64 450.25 Q 148.64 449.47 149.03 449.47 L 149.03 449.47 Q 154.1 449.47 156.51 448.82 Q 158.91 448.17 159.69 446.22 Q 160.47 444.27 160.47 440.5 L 160.47 440.5 L 160.47 410.08 L 110.55 410.08 L 110.55 440.5 Q 110.55 444.27 111.33 446.22 Q 112.11 448.17 114.65 448.82 Q 117.18 449.47 121.99 449.47 L 121.99 449.47 Q 122.25 449.47 122.25 450.25 Q 122.25 451.03 121.99 451.03 L 121.99 451.03 Q 118.74 451.03 114.91 450.9 Q 111.07 450.77 106.26 450.77 L 106.26 450.77 Q 101.97 450.77 97.94 450.9 Q 93.91 451.03 90.79 451.03 L 90.79 451.03 Q 90.53 451.03 90.53 450.25 Q 90.53 449.47 90.79 449.47 L 90.79 449.47 Q 95.6 449.47 98.07 448.82 Q 100.54 448.17 101.39 446.22 Q 102.23 444.27 102.23 440.5 L 102.23 440.5 L 102.23 380.31 Q 102.23 376.54 101.39 374.66 Q 100.54 372.77 98.14 372.06 Q 95.73 371.34 90.92 371.34 L 90.92 371.34 Q 90.66 371.34 90.66 370.56 Q 90.66 369.78 90.92 369.78 L 90.92 369.78 Q 94.04 369.78 98.01 369.98 Q 101.97 370.17 106.26 370.17 L 106.26 370.17 Q 111.07 370.17 114.97 369.98 Q 118.87 369.78 121.99 369.78 L 121.99 369.78 Q 122.25 369.78 122.25 370.56 Q 122.25 371.34 121.99 371.34 L 121.99 371.34 Q 117.18 371.34 114.71 372.12 Q 112.24 372.9 111.4 374.85 Q 110.55 376.8 110.55 380.57 L 110.55 380.57 L 110.55 407.35 L 160.47 407.35 Z M 217.24 452.72 L 217.24 452.72 Q 209.57 452.72 203.85 448.95 Q 198.13 445.18 195.01 438.88 Q 191.89 432.57 191.89 425.29 L 191.89 425.29 Q 191.89 418.53 194.36 413.59 Q 196.83 408.65 200.99 405.47 Q 205.15 402.28 210.03 400.72 Q 214.9 399.16 219.58 399.16 L 219.58 399.16 Q 227.51 399.16 233.17 403.06 Q 238.82 406.96 241.81 413.07 Q 244.8 419.18 244.8 425.94 L 244.8 425.94 Q 244.8 434.26 241.03 440.24 Q 237.26 446.22 231.02 449.47 Q 224.78 452.72 217.24 452.72 Z M 221.01 450.25 L 221.01 450.25 Q 227.9 450.25 231.93 445.38 Q 235.96 440.5 235.96 429.58 L 235.96 429.58 Q 235.96 421.39 233.3 415.09 Q 230.63 408.78 225.95 405.21 Q 221.27 401.63 215.29 401.63 L 215.29 401.63 Q 208.4 401.63 204.5 406.7 Q 200.6 411.77 200.6 421.26 L 200.6 421.26 Q 200.6 429.19 203.2 435.82 Q 205.8 442.45 210.42 446.35 Q 215.03 450.25 221.01 450.25 Z M 257.63 451.03 L 257.63 451.03 Q 257.24 451.03 257.24 450.25 Q 257.24 449.47 257.63 449.47 L 257.63 449.47 Q 262.7 449.47 264.2 447.72 Q 265.69 445.96 265.69 440.5 L 265.69 440.5 L 265.69 414.76 Q 265.69 410.47 264.72 408.46 Q 263.74 406.44 261.14 406.44 L 261.14 406.44 Q 259.84 406.44 258.09 406.96 Q 256.33 407.48 254.12 408.39 L 254.12 408.39 Q 253.6 408.52 253.28 407.87 Q 252.95 407.22 253.47 406.96 L 253.47 406.96 L 268.55 399.81 Q 268.94 399.68 269.33 399.68 L 269.33 399.68 Q 270.24 399.68 271.67 402.41 Q 273.1 405.14 273.1 410.34 L 273.1 410.34 L 273.1 410.47 Q 275.83 407.35 277.78 405.27 L 277.78 405.27 Q 280.9 402.15 283.18 400.92 Q 285.45 399.68 287.53 399.68 L 287.53 399.68 Q 290.26 399.68 292.93 401.24 Q 295.59 402.8 295.59 405.01 L 295.59 405.01 Q 295.59 406.7 294.49 407.87 Q 293.38 409.04 291.3 409.04 L 291.3 409.04 Q 289.61 409.04 288.44 408 Q 287.27 406.96 285.97 406.05 Q 284.67 405.14 282.59 405.14 L 282.59 405.14 Q 281.42 405.14 280.12 405.79 Q 278.82 406.44 276.61 408.65 L 276.61 408.65 Q 275.18 410.21 273.1 412.55 L 273.1 412.55 L 273.1 440.5 Q 273.1 444.14 274.01 446.16 Q 274.92 448.17 277.65 448.82 Q 280.38 449.47 285.71 449.47 L 285.71 449.47 Q 286.23 449.47 286.23 450.25 Q 286.23 451.03 285.71 451.03 L 285.71 451.03 Q 282.59 451.03 278.37 450.9 Q 274.14 450.77 269.46 450.77 L 269.46 450.77 Q 266.08 450.77 262.96 450.9 Q 259.84 451.03 257.63 451.03 Z M 308.29 451.03 L 308.29 451.03 Q 308.03 451.03 308.03 450.25 Q 308.03 449.47 308.29 449.47 L 308.29 449.47 Q 313.36 449.47 314.99 447.72 Q 316.61 445.96 316.61 440.5 L 316.61 440.5 L 316.61 416.19 Q 316.61 411.64 315.7 409.5 Q 314.79 407.35 312.32 407.35 L 312.32 407.35 Q 311.28 407.35 309.85 407.81 Q 308.42 408.26 306.47 409.17 L 306.47 409.17 Q 305.95 409.3 305.63 408.59 Q 305.3 407.87 305.69 407.61 L 305.69 407.61 L 322.59 399.81 Q 322.98 399.68 323.11 399.68 L 323.11 399.68 Q 323.37 399.68 323.76 400.01 Q 324.15 400.33 324.15 400.72 L 324.15 400.72 Q 324.15 401.76 324.02 405.79 Q 323.89 409.82 323.89 416.06 L 323.89 416.06 L 323.89 440.5 Q 323.89 445.96 325.39 447.72 Q 326.88 449.47 332.08 449.47 L 332.08 449.47 Q 332.47 449.47 332.47 450.25 Q 332.47 451.03 332.08 451.03 L 332.08 451.03 Q 329.74 451.03 326.69 450.9 Q 323.63 450.77 320.25 450.77 L 320.25 450.77 Q 316.87 450.77 313.82 450.9 Q 310.76 451.03 308.29 451.03 Z M 319.21 384.47 L 319.21 384.47 Q 316.61 384.47 315.05 383.04 Q 313.49 381.61 313.49 379.01 L 313.49 379.01 Q 313.49 376.41 315.05 374.98 Q 316.61 373.55 319.21 373.55 L 319.21 373.55 Q 321.81 373.55 323.24 374.98 Q 324.67 376.41 324.67 379.01 L 324.67 379.01 Q 324.67 384.47 319.21 384.47 Z M 344.65 449.47 L 344.65 449.47 L 375.85 403.45 Q 376.11 403.06 375.98 402.8 L 375.98 402.8 Q 375.85 402.54 375.2 402.54 L 375.2 402.54 Q 365.71 402.54 359.86 403.39 Q 354.01 404.23 350.83 406.7 Q 347.64 409.17 346.08 414.11 L 346.08 414.11 Q 345.95 414.5 345.3 414.24 L 345.3 414.24 Q 344.65 414.11 344.65 413.98 L 344.65 413.98 Q 344.65 413.85 344.65 413.85 L 344.65 413.85 L 349.07 397.08 Q 349.2 396.82 349.98 396.82 L 349.98 396.82 Q 350.5 396.95 350.5 397.08 L 350.5 397.08 Q 350.63 397.08 350.5 397.21 L 350.5 397.21 Q 349.98 399.42 351.48 400.14 Q 352.97 400.85 356.74 400.85 L 356.74 400.85 L 384.3 400.85 Q 384.82 400.85 385.21 401.37 Q 385.6 401.89 385.34 402.41 L 385.34 402.41 L 354.66 448.17 Q 354.4 448.56 354.53 448.82 L 354.53 448.82 Q 354.66 449.08 355.31 449.08 L 355.31 449.08 Q 364.28 449.08 369.68 448.69 Q 375.07 448.3 378.06 447.07 Q 381.05 445.83 382.68 443.23 Q 384.3 440.63 385.73 436.21 L 385.73 436.21 Q 385.86 435.95 386.51 435.95 Q 387.16 435.95 387.16 436.21 L 387.16 436.21 L 386.9 449.6 Q 386.9 450.12 386.58 450.58 Q 386.25 451.03 385.73 451.03 L 385.73 451.03 L 345.56 451.03 Q 345.04 451.03 344.72 450.51 Q 344.39 449.99 344.65 449.47 Z M 424.17 452.72 L 424.17 452.72 Q 416.5 452.72 410.78 448.95 Q 405.06 445.18 401.94 438.88 Q 398.82 432.57 398.82 425.29 L 398.82 425.29 Q 398.82 418.53 401.29 413.59 Q 403.76 408.65 407.92 405.47 Q 412.08 402.28 416.96 400.72 Q 421.83 399.16 426.51 399.16 L 426.51 399.16 Q 434.44 399.16 440.1 403.06 Q 445.75 406.96 448.74 413.07 Q 451.73 419.18 451.73 425.94 L 451.73 425.94 Q 451.73 434.26 447.96 440.24 Q 444.19 446.22 437.95 449.47 Q 431.71 452.72 424.17 452.72 Z M 427.94 450.25 L 427.94 450.25 Q 434.83 450.25 438.86 445.38 Q 442.89 440.5 442.89 429.58 L 442.89 429.58 Q 442.89 421.39 440.23 415.09 Q 437.56 408.78 432.88 405.21 Q 428.2 401.63 422.22 401.63 L 422.22 401.63 Q 415.33 401.63 411.43 406.7 Q 407.53 411.77 407.53 421.26 L 407.53 421.26 Q 407.53 429.19 410.13 435.82 Q 412.73 442.45 417.35 446.35 Q 421.96 450.25 427.94 450.25 Z M 499.53 451.03 L 499.53 451.03 Q 499.14 451.03 499.14 450.25 Q 499.14 449.47 499.53 449.47 L 499.53 449.47 Q 504.6 449.47 506.1 447.72 Q 507.59 445.96 507.59 440.5 L 507.59 440.5 L 507.59 419.44 Q 507.59 411.64 504.73 408.07 Q 501.87 404.49 495.63 404.49 L 495.63 404.49 Q 490.95 404.49 486.01 407.48 L 486.01 407.48 Q 482.76 409.43 480.03 412.42 L 480.03 412.42 L 480.03 440.5 Q 480.03 445.96 481.53 447.72 Q 483.02 449.47 488.09 449.47 L 488.09 449.47 Q 488.48 449.47 488.48 450.25 Q 488.48 451.03 488.09 451.03 L 488.09 451.03 Q 485.88 451.03 482.83 450.9 Q 479.77 450.77 476.39 450.77 Q 473.01 450.77 469.89 450.9 Q 466.77 451.03 464.56 451.03 L 464.56 451.03 Q 464.17 451.03 464.17 450.25 Q 464.17 449.47 464.56 449.47 L 464.56 449.47 Q 469.63 449.47 471.13 447.72 Q 472.62 445.96 472.62 440.5 L 472.62 440.5 L 472.62 414.76 Q 472.62 410.47 471.65 408.46 Q 470.67 406.44 468.07 406.44 L 468.07 406.44 Q 466.77 406.44 465.02 406.96 Q 463.26 407.48 461.05 408.39 L 461.05 408.39 Q 460.53 408.52 460.21 407.87 Q 459.88 407.22 460.4 406.96 L 460.4 406.96 L 475.48 399.81 Q 475.87 399.68 476.26 399.68 L 476.26 399.68 Q 477.17 399.68 478.6 402.41 Q 480.03 405.14 480.03 410.34 L 480.03 410.34 L 480.03 410.34 Q 484.19 405.53 488.48 402.8 L 488.48 402.8 Q 494.07 399.16 499.92 399.16 L 499.92 399.16 Q 507.07 399.16 511.04 403.13 Q 515 407.09 515 415.02 L 515 415.02 L 515 440.5 Q 515 445.96 516.5 447.72 Q 517.99 449.47 523.06 449.47 L 523.06 449.47 Q 523.45 449.47 523.45 450.25 Q 523.45 451.03 523.06 451.03 L 523.06 451.03 Q 520.85 451.03 517.8 450.9 Q 514.74 450.77 511.36 450.77 Q 507.98 450.77 504.86 450.9 Q 501.74 451.03 499.53 451.03 Z M 552.66 452.59 L 552.66 452.59 Q 549.54 452.59 546.68 451.62 Q 543.82 450.64 542 448.3 Q 540.18 445.96 540.18 441.93 L 540.18 441.93 L 540.18 411.38 Q 540.18 408.26 539.79 406.7 Q 539.4 405.14 537.97 404.69 Q 536.54 404.23 533.55 404.23 L 533.55 404.23 Q 533.03 404.23 533.03 403.39 Q 533.03 402.54 533.55 402.54 L 533.55 402.54 Q 538.75 402.41 542.07 399.68 Q 545.38 396.95 545.77 392.66 L 545.77 392.66 Q 545.77 392.27 546.75 392.27 Q 547.72 392.27 547.72 392.66 L 547.72 392.66 L 547.72 402.28 Q 551.75 402.15 555.52 401.89 L 555.52 401.89 Q 560.33 401.5 565.79 400.98 L 565.79 400.98 Q 566.05 400.98 566.38 401.89 Q 566.7 402.8 566.7 404.1 L 566.7 404.1 Q 566.7 405.01 566.25 406.18 Q 565.79 407.35 565.27 407.22 L 565.27 407.22 Q 560.2 405.92 555.52 405.53 L 555.52 405.53 Q 551.88 405.27 547.72 405.14 L 547.72 405.14 L 547.72 437.51 Q 547.72 442.84 550.39 445.44 Q 553.05 448.04 557.99 448.04 L 557.99 448.04 Q 561.37 448.04 564.04 446.94 Q 566.7 445.83 568.39 444.4 L 568.39 444.4 Q 568.91 444.14 569.43 444.66 L 569.43 444.66 Q 569.56 445.05 569.56 445.31 L 569.56 445.31 Q 569.56 445.57 569.3 445.7 L 569.3 445.7 Q 564.49 449.34 560.66 450.97 Q 556.82 452.59 552.66 452.59 Z M 602.93 452.59 L 602.93 452.59 Q 595.13 452.59 589.8 449.02 Q 584.47 445.44 581.81 439.72 Q 579.14 434 579.14 427.63 L 579.14 427.63 Q 579.14 419.7 582.78 413.4 Q 586.42 407.09 592.73 403.39 Q 599.03 399.68 606.57 399.68 L 606.57 399.68 Q 613.98 399.68 617.82 403.58 Q 621.65 407.48 621.65 414.5 L 621.65 414.5 Q 621.65 416.19 621.33 417.04 Q 621 417.88 620.09 417.88 L 620.09 417.88 L 614.76 417.88 L 587.98 418.01 Q 587.72 420.22 587.72 422.69 L 587.72 422.69 Q 587.72 430.1 590.06 435.82 Q 592.4 441.54 596.95 444.79 Q 601.5 448.04 608 448.04 L 608 448.04 Q 612.42 448.04 615.28 446.74 Q 618.14 445.44 621 443.75 L 621 443.75 Q 621 443.75 621.13 443.62 L 621.13 443.62 Q 621.39 443.62 621.78 444.01 L 621.78 444.01 Q 622.17 444.66 621.91 445.05 L 621.91 445.05 Q 617.36 449.08 612.62 450.84 Q 607.87 452.59 602.93 452.59 Z M 588.24 416.32 L 612.94 415.8 Q 612.94 409.43 610.47 406.05 L 610.47 406.05 Q 607.61 402.28 602.28 402.28 L 602.28 402.28 Q 595.39 402.28 591.62 407.74 L 591.62 407.74 Q 589.15 411.25 588.24 416.32 L 588.24 416.32 Z M 642.8 408.78 L 642.8 408.78 Q 642.8 412.16 644.56 414.5 Q 646.31 416.84 648.98 418.47 Q 651.64 420.09 654.63 421.65 L 654.63 421.65 Q 658.01 423.34 661 425.23 Q 663.99 427.11 665.94 429.78 Q 667.89 432.44 667.89 436.73 L 667.89 436.73 Q 667.89 440.89 665.81 444.47 Q 663.73 448.04 659.64 450.25 Q 655.54 452.46 649.56 452.46 L 649.56 452.46 Q 646.31 452.46 643.32 451.62 Q 640.33 450.77 637.08 448.56 L 637.08 448.56 Q 636.82 448.3 636.56 447.91 Q 636.3 447.52 636.3 447 L 636.3 447 L 636.04 436.86 Q 636.04 436.47 636.76 436.41 Q 637.47 436.34 637.6 436.73 L 637.6 436.73 Q 639.16 441.15 641.5 444.08 Q 643.84 447 646.83 448.5 Q 649.82 449.99 653.2 449.99 L 653.2 449.99 Q 657.36 449.99 659.64 447.91 Q 661.91 445.83 661.78 441.8 L 661.78 441.8 Q 661.65 438.03 659.83 435.69 Q 658.01 433.35 655.35 431.73 Q 652.68 430.1 649.82 428.67 L 649.82 428.67 Q 646.57 427.11 643.65 425.36 Q 640.72 423.6 638.84 420.87 Q 636.95 418.14 636.95 413.72 L 636.95 413.72 Q 636.95 408.65 639.55 405.47 Q 642.15 402.28 646.18 400.79 Q 650.21 399.29 654.63 399.29 L 654.63 399.29 Q 657.1 399.29 659.44 399.68 Q 661.78 400.07 664.12 401.24 L 664.12 401.24 Q 665.29 401.63 665.29 402.67 L 665.29 402.67 Q 665.29 404.75 665.16 407.03 Q 665.03 409.3 665.03 412.16 L 665.03 412.16 Q 665.03 412.42 664.25 412.42 Q 663.47 412.42 663.47 412.16 L 663.47 412.16 Q 663.47 409.17 661.39 406.83 Q 659.31 404.49 656.19 403.13 Q 653.07 401.76 649.95 401.76 L 649.95 401.76 Q 646.83 401.76 644.82 403.45 Q 642.8 405.14 642.8 408.78 Z" fill="#102F27" />
<path d="M 236.9 493.48 L 236.9 493.48 Q 234.58 493.48 232.62 492.72 Q 230.67 491.95 229.23 490.54 Q 227.8 489.13 226.98 487.25 Q 226.17 485.36 226.17 483.1 L 226.17 483.1 Q 226.17 480.84 226.98 478.96 Q 227.8 477.07 229.25 475.66 Q 230.7 474.26 232.65 473.49 Q 234.61 472.72 236.93 472.72 L 236.93 472.72 Q 239.28 472.72 241.27 473.52 Q 243.25 474.32 244.64 475.88 L 244.64 475.88 L 242.76 477.71 Q 241.6 476.49 240.15 475.9 Q 238.7 475.3 237.05 475.3 L 237.05 475.3 Q 235.34 475.3 233.87 475.88 Q 232.41 476.46 231.33 477.51 Q 230.26 478.55 229.67 479.99 Q 229.07 481.42 229.07 483.1 L 229.07 483.1 Q 229.07 484.78 229.67 486.22 Q 230.26 487.66 231.33 488.7 Q 232.41 489.74 233.87 490.32 Q 235.34 490.9 237.05 490.9 L 237.05 490.9 Q 238.7 490.9 240.15 490.31 Q 241.6 489.71 242.76 488.47 L 242.76 488.47 L 244.64 490.29 Q 243.25 491.86 241.27 492.67 Q 239.28 493.48 236.9 493.48 Z M 266.47 493.48 L 266.47 493.48 Q 264.15 493.48 262.16 492.7 Q 260.17 491.92 258.72 490.51 Q 257.27 489.11 256.46 487.22 Q 255.65 485.34 255.65 483.1 L 255.65 483.1 Q 255.65 480.87 256.46 478.98 Q 257.27 477.1 258.72 475.69 Q 260.17 474.29 262.14 473.5 Q 264.12 472.72 266.47 472.72 L 266.47 472.72 Q 268.79 472.72 270.74 473.49 Q 272.7 474.26 274.17 475.66 Q 275.63 477.07 276.43 478.96 Q 277.22 480.84 277.22 483.1 L 277.22 483.1 Q 277.22 485.36 276.43 487.25 Q 275.63 489.13 274.17 490.54 Q 272.7 491.95 270.74 492.72 Q 268.79 493.48 266.47 493.48 Z M 266.47 490.9 L 266.47 490.9 Q 268.15 490.9 269.58 490.32 Q 271.02 489.74 272.08 488.69 Q 273.14 487.63 273.73 486.21 Q 274.32 484.78 274.32 483.1 L 274.32 483.1 Q 274.32 481.42 273.73 480 Q 273.14 478.58 272.08 477.52 Q 271.02 476.46 269.58 475.88 Q 268.15 475.3 266.47 475.3 L 266.47 475.3 Q 264.75 475.3 263.32 475.88 Q 261.88 476.46 260.81 477.52 Q 259.74 478.58 259.14 480 Q 258.55 481.42 258.55 483.1 L 258.55 483.1 Q 258.55 484.78 259.14 486.21 Q 259.74 487.63 260.81 488.69 Q 261.88 489.74 263.32 490.32 Q 264.75 490.9 266.47 490.9 Z M 293.36 493.25 L 290.46 493.25 L 290.46 472.95 L 292.84 472.95 L 305.02 488.09 L 305.02 472.95 L 307.92 472.95 L 307.92 493.25 L 305.54 493.25 L 293.36 478.11 L 293.36 493.25 Z M 328.73 493.48 L 328.73 493.48 Q 326.41 493.48 324.29 492.77 Q 322.17 492.06 320.95 490.93 L 320.95 490.93 L 322.03 488.67 Q 323.19 489.69 324.98 490.35 Q 326.78 491.02 328.73 491.02 L 328.73 491.02 Q 330.49 491.02 331.6 490.61 Q 332.7 490.21 333.22 489.5 Q 333.74 488.79 333.74 487.89 L 333.74 487.89 Q 333.74 486.84 333.06 486.21 Q 332.38 485.57 331.29 485.18 Q 330.2 484.78 328.9 484.49 Q 327.59 484.2 326.28 483.81 Q 324.96 483.42 323.87 482.81 Q 322.78 482.2 322.11 481.17 Q 321.45 480.14 321.45 478.52 L 321.45 478.52 Q 321.45 476.95 322.27 475.64 Q 323.1 474.32 324.83 473.52 Q 326.55 472.72 329.22 472.72 L 329.22 472.72 Q 330.99 472.72 332.73 473.18 Q 334.47 473.65 335.74 474.52 L 335.74 474.52 L 334.79 476.84 Q 333.48 475.97 332.03 475.58 Q 330.58 475.19 329.22 475.19 L 329.22 475.19 Q 327.51 475.19 326.41 475.62 Q 325.3 476.06 324.8 476.78 Q 324.29 477.51 324.29 478.4 L 324.29 478.4 Q 324.29 479.48 324.97 480.12 Q 325.65 480.75 326.74 481.13 Q 327.83 481.51 329.13 481.81 Q 330.44 482.12 331.76 482.49 Q 333.08 482.87 334.16 483.48 Q 335.25 484.09 335.92 485.1 Q 336.58 486.12 336.58 487.71 L 336.58 487.71 Q 336.58 489.25 335.74 490.57 Q 334.9 491.89 333.15 492.69 Q 331.39 493.48 328.73 493.48 Z M 358.03 493.48 L 358.03 493.48 Q 354.03 493.48 351.74 491.19 Q 349.44 488.9 349.44 484.49 L 349.44 484.49 L 349.44 472.95 L 352.34 472.95 L 352.34 484.38 Q 352.34 487.77 353.84 489.34 Q 355.33 490.9 358.06 490.9 L 358.06 490.9 Q 360.81 490.9 362.31 489.34 Q 363.8 487.77 363.8 484.38 L 363.8 484.38 L 363.8 472.95 L 366.61 472.95 L 366.61 484.49 Q 366.61 488.9 364.34 491.19 Q 362.06 493.48 358.03 493.48 Z M 395.25 493.25 L 381.36 493.25 L 381.36 472.95 L 384.26 472.95 L 384.26 490.73 L 395.25 490.73 L 395.25 493.25 Z M 414.29 493.25 L 411.41 493.25 L 411.41 475.48 L 404.45 475.48 L 404.45 472.95 L 421.25 472.95 L 421.25 475.48 L 414.29 475.48 L 414.29 493.25 Z M 442.37 493.48 L 442.37 493.48 Q 440.05 493.48 438.06 492.7 Q 436.08 491.92 434.63 490.51 Q 433.18 489.11 432.37 487.22 Q 431.55 485.34 431.55 483.1 L 431.55 483.1 Q 431.55 480.87 432.37 478.98 Q 433.18 477.1 434.63 475.69 Q 436.08 474.29 438.05 473.5 Q 440.02 472.72 442.37 472.72 L 442.37 472.72 Q 444.69 472.72 446.65 473.49 Q 448.61 474.26 450.07 475.66 Q 451.53 477.07 452.33 478.96 Q 453.13 480.84 453.13 483.1 L 453.13 483.1 Q 453.13 485.36 452.33 487.25 Q 451.53 489.13 450.07 490.54 Q 448.61 491.95 446.65 492.72 Q 444.69 493.48 442.37 493.48 Z M 442.37 490.9 L 442.37 490.9 Q 444.05 490.9 445.49 490.32 Q 446.92 489.74 447.98 488.69 Q 449.04 487.63 449.64 486.21 Q 450.23 484.78 450.23 483.1 L 450.23 483.1 Q 450.23 481.42 449.64 480 Q 449.04 478.58 447.98 477.52 Q 446.92 476.46 445.49 475.88 Q 444.05 475.3 442.37 475.3 L 442.37 475.3 Q 440.66 475.3 439.22 475.88 Q 437.79 476.46 436.72 477.52 Q 435.64 478.58 435.05 480 Q 434.45 481.42 434.45 483.1 L 434.45 483.1 Q 434.45 484.78 435.05 486.21 Q 435.64 487.63 436.72 488.69 Q 437.79 489.74 439.22 490.32 Q 440.66 490.9 442.37 490.9 Z M 469.27 493.25 L 466.37 493.25 L 466.37 472.95 L 474.28 472.95 Q 478.23 472.95 480.49 474.82 Q 482.75 476.69 482.75 480.03 L 482.75 480.03 Q 482.75 482.23 481.74 483.81 Q 480.72 485.39 478.84 486.23 L 478.84 486.23 Q 478.58 486.35 478.29 486.47 L 478.29 486.47 L 483.1 493.25 L 479.94 493.25 L 475.56 487.02 Q 474.95 487.08 474.28 487.08 L 474.28 487.08 L 469.27 487.08 L 469.27 493.25 Z M 469.27 475.48 L 469.27 484.61 L 474.2 484.61 Q 476.98 484.61 478.42 483.41 Q 479.85 482.2 479.85 480.03 Q 479.85 477.85 478.42 476.66 Q 476.98 475.48 474.2 475.48 L 474.2 475.48 L 469.27 475.48 Z M 499.15 493.25 L 496.25 493.25 L 496.25 472.95 L 499.15 472.95 L 499.15 493.25 Z M 513.95 493.25 L 510.97 493.25 L 520.16 472.95 L 523.03 472.95 L 532.25 493.25 L 529.21 493.25 L 526.97 488.18 L 516.19 488.18 L 513.95 493.25 Z M 517.2 485.86 L 525.96 485.86 L 521.58 475.91 L 517.2 485.86 Z" fill="#6B7F75" />
</svg>
