<?xml version="1.0" encoding="UTF-8"?>
<svg width="1123.85" height="311.73" viewBox="0 0 1123.85 311.73" fill="none" xmlns="http://www.w3.org/2000/svg">
  <title>horizontes-consultoria-horizontal-color</title>
  <path d="M 103.71 255.58 C 131.23 255.58 155.31 243.54 175.95 228.06 C 196.59 210.86 217.23 193.66 239.59 188.5 C 261.95 185.06 280.87 195.38 298.07 209.14 C 313.55 221.18 330.75 233.22 347.95 233.22 C 368.59 233.22 387.51 221.18 406.43 212.58 C 427.07 203.98 445.99 207.42 463.19 217.74 C 473.51 224.62 480.39 228.06 483.83 226.34" fill="none" stroke="#6B7F75" stroke-width="4.3" stroke-linecap="round" stroke-linejoin="round" />
<circle cx="179.39" cy="107.66" r="53.66" fill="#CFA45B" />
<path d="M 58.99 243.54 C 89.95 243.54 117.47 205.7 138.11 171.3 C 153.59 145.5 167.35 117.98 186.27 102.5 C 203.47 88.74 218.95 93.9 234.43 112.82 C 249.91 131.74 261.95 154.1 277.43 160.98 C 292.91 167.86 310.11 150.66 323.87 131.74 C 339.35 111.1 356.55 107.66 373.75 126.58 C 396.11 152.38 418.47 191.94 447.71 200.54 C 456.31 203.98 461.47 203.98 458.03 202.26" fill="none" stroke="#102F27" stroke-width="9.98" stroke-linecap="round" stroke-linejoin="round" />
<path d="M 586.69 108.95 L 586.69 83.4 Q 586.69 79.81 585.95 77.95 Q 585.2 76.09 582.91 75.34 Q 580.61 74.6 575.78 74.6 L 575.78 74.6 Q 575.41 74.6 575.41 73.85 Q 575.41 73.11 575.78 73.11 L 575.78 73.11 Q 578.75 73.11 582.47 73.3 Q 586.19 73.48 590.78 73.48 L 590.78 73.48 Q 594.87 73.48 598.72 73.3 Q 602.56 73.11 605.41 73.11 L 605.41 73.11 Q 605.79 73.11 605.79 73.85 Q 605.79 74.6 605.41 74.6 L 605.41 74.6 Q 600.83 74.6 598.47 75.28 Q 596.11 75.96 595.37 77.76 Q 594.63 79.56 594.63 83.15 L 594.63 83.15 L 594.63 140.57 Q 594.63 144.16 595.37 146.02 Q 596.11 147.88 598.47 148.5 Q 600.83 149.12 605.41 149.12 L 605.41 149.12 Q 605.79 149.12 605.79 149.87 Q 605.79 150.61 605.41 150.61 L 605.41 150.61 Q 602.56 150.61 598.72 150.49 Q 594.87 150.36 590.78 150.36 L 590.78 150.36 Q 586.19 150.36 582.47 150.49 Q 578.75 150.61 575.78 150.61 L 575.78 150.61 Q 575.41 150.61 575.41 149.87 Q 575.41 149.12 575.78 149.12 L 575.78 149.12 Q 580.61 149.12 582.91 148.5 Q 585.2 147.88 585.95 146.02 Q 586.69 144.16 586.69 140.57 L 586.69 140.57 L 586.69 111.55 L 539.07 111.55 L 539.07 140.57 Q 539.07 144.16 539.82 146.02 Q 540.56 147.88 542.98 148.5 Q 545.4 149.12 549.99 149.12 L 549.99 149.12 Q 550.23 149.12 550.23 149.87 Q 550.23 150.61 549.99 150.61 L 549.99 150.61 Q 546.89 150.61 543.23 150.49 Q 539.57 150.36 534.98 150.36 L 534.98 150.36 Q 530.89 150.36 527.05 150.49 Q 523.2 150.61 520.23 150.61 L 520.23 150.61 Q 519.98 150.61 519.98 149.87 Q 519.98 149.12 520.23 149.12 L 520.23 149.12 Q 524.81 149.12 527.17 148.5 Q 529.53 147.88 530.33 146.02 Q 531.14 144.16 531.14 140.57 L 531.14 140.57 L 531.14 83.15 Q 531.14 79.56 530.33 77.76 Q 529.53 75.96 527.23 75.28 Q 524.94 74.6 520.35 74.6 L 520.35 74.6 Q 520.1 74.6 520.1 73.85 Q 520.1 73.11 520.35 73.11 L 520.35 73.11 Q 523.33 73.11 527.11 73.3 Q 530.89 73.48 534.98 73.48 L 534.98 73.48 Q 539.57 73.48 543.29 73.3 Q 547.01 73.11 549.99 73.11 L 549.99 73.11 Q 550.23 73.11 550.23 73.85 Q 550.23 74.6 549.99 74.6 L 549.99 74.6 Q 545.4 74.6 543.04 75.34 Q 540.69 76.09 539.88 77.95 Q 539.07 79.81 539.07 83.4 L 539.07 83.4 L 539.07 108.95 L 586.69 108.95 Z M 640.75 152.22 L 640.75 152.22 Q 633.43 152.22 627.97 148.63 Q 622.52 145.03 619.54 139.02 Q 616.57 133 616.57 126.06 L 616.57 126.06 Q 616.57 119.61 618.92 114.9 Q 621.28 110.19 625.25 107.15 Q 629.21 104.11 633.86 102.62 Q 638.51 101.13 642.98 101.13 L 642.98 101.13 Q 650.54 101.13 655.94 104.85 Q 661.33 108.57 664.18 114.4 Q 667.03 120.23 667.03 126.68 L 667.03 126.68 Q 667.03 134.62 663.44 140.32 Q 659.84 146.02 653.89 149.12 Q 647.94 152.22 640.75 152.22 Z M 644.34 149.87 L 644.34 149.87 Q 650.91 149.87 654.76 145.22 Q 658.6 140.57 658.6 130.15 L 658.6 130.15 Q 658.6 122.34 656.06 116.32 Q 653.52 110.31 649.05 106.9 Q 644.59 103.49 638.89 103.49 L 638.89 103.49 Q 632.31 103.49 628.59 108.33 Q 624.87 113.16 624.87 122.21 L 624.87 122.21 Q 624.87 129.78 627.35 136.1 Q 629.83 142.43 634.24 146.15 Q 638.64 149.87 644.34 149.87 Z M 679.18 150.61 L 679.18 150.61 Q 678.81 150.61 678.81 149.87 Q 678.81 149.12 679.18 149.12 L 679.18 149.12 Q 684.01 149.12 685.44 147.45 Q 686.87 145.77 686.87 140.57 L 686.87 140.57 L 686.87 116.02 Q 686.87 111.92 685.94 110 Q 685.01 108.08 682.53 108.08 L 682.53 108.08 Q 681.29 108.08 679.61 108.57 Q 677.94 109.07 675.83 109.94 L 675.83 109.94 Q 675.33 110.06 675.02 109.44 Q 674.71 108.82 675.21 108.57 L 675.21 108.57 L 689.59 101.75 Q 689.97 101.63 690.34 101.63 L 690.34 101.63 Q 691.21 101.63 692.57 104.23 Q 693.93 106.84 693.93 111.8 L 693.93 111.8 L 693.93 111.92 Q 696.54 108.95 698.4 106.96 L 698.4 106.96 Q 701.37 103.99 703.54 102.81 Q 705.71 101.63 707.7 101.63 L 707.7 101.63 Q 710.3 101.63 712.84 103.12 Q 715.39 104.61 715.39 106.71 L 715.39 106.71 Q 715.39 108.33 714.33 109.44 Q 713.28 110.56 711.29 110.56 L 711.29 110.56 Q 709.68 110.56 708.57 109.57 Q 707.45 108.57 706.21 107.71 Q 704.97 106.84 702.99 106.84 L 702.99 106.84 Q 701.87 106.84 700.63 107.46 Q 699.39 108.08 697.28 110.19 L 697.28 110.19 Q 695.92 111.67 693.93 113.91 L 693.93 113.91 L 693.93 140.57 Q 693.93 144.04 694.8 145.96 Q 695.67 147.88 698.27 148.5 Q 700.88 149.12 705.96 149.12 L 705.96 149.12 Q 706.46 149.12 706.46 149.87 Q 706.46 150.61 705.96 150.61 L 705.96 150.61 Q 702.99 150.61 698.96 150.49 Q 694.93 150.36 690.46 150.36 L 690.46 150.36 Q 687.24 150.36 684.26 150.49 Q 681.29 150.61 679.18 150.61 Z M 727.41 150.61 L 727.41 150.61 Q 727.16 150.61 727.16 149.87 Q 727.16 149.12 727.41 149.12 L 727.41 149.12 Q 732.24 149.12 733.79 147.45 Q 735.34 145.77 735.34 140.57 L 735.34 140.57 L 735.34 117.38 Q 735.34 113.04 734.47 110.99 Q 733.61 108.95 731.25 108.95 L 731.25 108.95 Q 730.26 108.95 728.89 109.38 Q 727.53 109.81 725.67 110.68 L 725.67 110.68 Q 725.17 110.81 724.86 110.12 Q 724.55 109.44 724.93 109.19 L 724.93 109.19 L 741.05 101.75 Q 741.42 101.63 741.54 101.63 L 741.54 101.63 Q 741.79 101.63 742.16 101.94 Q 742.53 102.25 742.53 102.62 L 742.53 102.62 Q 742.53 103.61 742.41 107.46 Q 742.29 111.3 742.29 117.25 L 742.29 117.25 L 742.29 140.57 Q 742.29 145.77 743.71 147.45 Q 745.14 149.12 750.1 149.12 L 750.1 149.12 Q 750.47 149.12 750.47 149.87 Q 750.47 150.61 750.1 150.61 L 750.1 150.61 Q 747.87 150.61 744.95 150.49 Q 742.04 150.36 738.81 150.36 L 738.81 150.36 Q 735.59 150.36 732.68 150.49 Q 729.76 150.61 727.41 150.61 Z M 737.82 87.12 L 737.82 87.12 Q 735.34 87.12 733.85 85.76 Q 732.37 84.39 732.37 81.91 L 732.37 81.91 Q 732.37 79.43 733.85 78.07 Q 735.34 76.71 737.82 76.71 L 737.82 76.71 Q 740.3 76.71 741.67 78.07 Q 743.03 79.43 743.03 81.91 L 743.03 81.91 Q 743.03 87.12 737.82 87.12 Z M 761.99 149.12 L 761.99 149.12 L 791.75 105.23 Q 792 104.85 791.88 104.61 L 791.88 104.61 Q 791.75 104.36 791.13 104.36 L 791.13 104.36 Q 782.08 104.36 776.5 105.16 Q 770.92 105.97 767.88 108.33 Q 764.85 110.68 763.36 115.39 L 763.36 115.39 Q 763.23 115.77 762.61 115.52 L 762.61 115.52 Q 761.99 115.39 761.99 115.27 L 761.99 115.27 Q 761.99 115.15 761.99 115.15 L 761.99 115.15 L 766.21 99.15 Q 766.33 98.9 767.08 98.9 L 767.08 98.9 Q 767.57 99.03 767.57 99.15 L 767.57 99.15 Q 767.7 99.15 767.57 99.27 L 767.57 99.27 Q 767.08 101.38 768.5 102.06 Q 769.93 102.75 773.53 102.75 L 773.53 102.75 L 799.81 102.75 Q 800.31 102.75 800.68 103.24 Q 801.05 103.74 800.81 104.23 L 800.81 104.23 L 771.54 147.88 Q 771.29 148.25 771.42 148.5 L 771.42 148.5 Q 771.54 148.75 772.16 148.75 L 772.16 148.75 Q 780.72 148.75 785.86 148.38 Q 791.01 148.01 793.86 146.83 Q 796.71 145.65 798.26 143.17 Q 799.81 140.69 801.18 136.47 L 801.18 136.47 Q 801.3 136.23 801.92 136.23 Q 802.54 136.23 802.54 136.47 L 802.54 136.47 L 802.29 149.25 Q 802.29 149.74 801.98 150.18 Q 801.67 150.61 801.18 150.61 L 801.18 150.61 L 762.86 150.61 Q 762.37 150.61 762.06 150.12 Q 761.75 149.62 761.99 149.12 Z M 837.75 152.22 L 837.75 152.22 Q 830.43 152.22 824.98 148.63 Q 819.52 145.03 816.55 139.02 Q 813.57 133 813.57 126.06 L 813.57 126.06 Q 813.57 119.61 815.93 114.9 Q 818.28 110.19 822.25 107.15 Q 826.22 104.11 830.87 102.62 Q 835.52 101.13 839.98 101.13 L 839.98 101.13 Q 847.55 101.13 852.94 104.85 Q 858.33 108.57 861.19 114.4 Q 864.04 120.23 864.04 126.68 L 864.04 126.68 Q 864.04 134.62 860.44 140.32 Q 856.85 146.02 850.89 149.12 Q 844.94 152.22 837.75 152.22 Z M 841.35 149.87 L 841.35 149.87 Q 847.92 149.87 851.76 145.22 Q 855.61 140.57 855.61 130.15 L 855.61 130.15 Q 855.61 122.34 853.06 116.32 Q 850.52 110.31 846.06 106.9 Q 841.59 103.49 835.89 103.49 L 835.89 103.49 Q 829.32 103.49 825.6 108.33 Q 821.88 113.16 821.88 122.21 L 821.88 122.21 Q 821.88 129.78 824.36 136.1 Q 826.84 142.43 831.24 146.15 Q 835.64 149.87 841.35 149.87 Z M 909.54 150.61 L 909.54 150.61 Q 909.17 150.61 909.17 149.87 Q 909.17 149.12 909.54 149.12 L 909.54 149.12 Q 914.37 149.12 915.8 147.45 Q 917.23 145.77 917.23 140.57 L 917.23 140.57 L 917.23 120.48 Q 917.23 113.04 914.5 109.63 Q 911.77 106.22 905.82 106.22 L 905.82 106.22 Q 901.35 106.22 896.64 109.07 L 896.64 109.07 Q 893.54 110.93 890.94 113.78 L 890.94 113.78 L 890.94 140.57 Q 890.94 145.77 892.36 147.45 Q 893.79 149.12 898.63 149.12 L 898.63 149.12 Q 899 149.12 899 149.87 Q 899 150.61 898.63 150.61 L 898.63 150.61 Q 896.52 150.61 893.6 150.49 Q 890.69 150.36 887.47 150.36 Q 884.24 150.36 881.27 150.49 Q 878.29 150.61 876.18 150.61 L 876.18 150.61 Q 875.81 150.61 875.81 149.87 Q 875.81 149.12 876.18 149.12 L 876.18 149.12 Q 881.02 149.12 882.44 147.45 Q 883.87 145.77 883.87 140.57 L 883.87 140.57 L 883.87 116.02 Q 883.87 111.92 882.94 110 Q 882.01 108.08 879.53 108.08 L 879.53 108.08 Q 878.29 108.08 876.62 108.57 Q 874.94 109.07 872.83 109.94 L 872.83 109.94 Q 872.34 110.06 872.03 109.44 Q 871.72 108.82 872.21 108.57 L 872.21 108.57 L 886.6 101.75 Q 886.97 101.63 887.34 101.63 L 887.34 101.63 Q 888.21 101.63 889.57 104.23 Q 890.94 106.84 890.94 111.8 L 890.94 111.8 L 890.94 111.8 Q 894.91 107.21 899 104.61 L 899 104.61 Q 904.33 101.13 909.91 101.13 L 909.91 101.13 Q 916.73 101.13 920.51 104.92 Q 924.29 108.7 924.29 116.26 L 924.29 116.26 L 924.29 140.57 Q 924.29 145.77 925.72 147.45 Q 927.15 149.12 931.98 149.12 L 931.98 149.12 Q 932.35 149.12 932.35 149.87 Q 932.35 150.61 931.98 150.61 L 931.98 150.61 Q 929.87 150.61 926.96 150.49 Q 924.05 150.36 920.82 150.36 Q 917.6 150.36 914.62 150.49 Q 911.65 150.61 909.54 150.61 Z M 960.12 152.1 L 960.12 152.1 Q 957.15 152.1 954.42 151.17 Q 951.69 150.24 949.95 148.01 Q 948.22 145.77 948.22 141.93 L 948.22 141.93 L 948.22 112.79 Q 948.22 109.81 947.85 108.33 Q 947.47 106.84 946.11 106.4 Q 944.75 105.97 941.89 105.97 L 941.89 105.97 Q 941.4 105.97 941.4 105.16 Q 941.4 104.36 941.89 104.36 L 941.89 104.36 Q 946.85 104.23 950.02 101.63 Q 953.18 99.03 953.55 94.93 L 953.55 94.93 Q 953.55 94.56 954.48 94.56 Q 955.41 94.56 955.41 94.93 L 955.41 94.93 L 955.41 104.11 Q 959.25 103.99 962.85 103.74 L 962.85 103.74 Q 967.44 103.37 972.65 102.87 L 972.65 102.87 Q 972.89 102.87 973.2 103.74 Q 973.51 104.61 973.51 105.85 L 973.51 105.85 Q 973.51 106.71 973.08 107.83 Q 972.65 108.95 972.15 108.82 L 972.15 108.82 Q 967.31 107.58 962.85 107.21 L 962.85 107.21 Q 959.38 106.96 955.41 106.84 L 955.41 106.84 L 955.41 137.71 Q 955.41 142.8 957.95 145.28 Q 960.49 147.76 965.21 147.76 L 965.21 147.76 Q 968.43 147.76 970.97 146.7 Q 973.51 145.65 975.13 144.29 L 975.13 144.29 Q 975.62 144.04 976.12 144.53 L 976.12 144.53 Q 976.24 144.91 976.24 145.15 L 976.24 145.15 Q 976.24 145.4 975.99 145.53 L 975.99 145.53 Q 971.41 149 967.75 150.55 Q 964.09 152.1 960.12 152.1 Z M 1007.98 152.1 L 1007.98 152.1 Q 1000.54 152.1 995.45 148.69 Q 990.37 145.28 987.83 139.82 Q 985.29 134.37 985.29 128.29 L 985.29 128.29 Q 985.29 120.73 988.76 114.71 Q 992.23 108.7 998.24 105.16 Q 1004.26 101.63 1011.45 101.63 L 1011.45 101.63 Q 1018.52 101.63 1022.18 105.35 Q 1025.83 109.07 1025.83 115.77 L 1025.83 115.77 Q 1025.83 117.38 1025.52 118.18 Q 1025.21 118.99 1024.35 118.99 L 1024.35 118.99 L 1019.26 118.99 L 993.72 119.11 Q 993.47 121.22 993.47 123.58 L 993.47 123.58 Q 993.47 130.65 995.7 136.1 Q 997.93 141.56 1002.27 144.66 Q 1006.61 147.76 1012.81 147.76 L 1012.81 147.76 Q 1017.03 147.76 1019.76 146.52 Q 1022.49 145.28 1025.21 143.67 L 1025.21 143.67 Q 1025.21 143.67 1025.34 143.54 L 1025.34 143.54 Q 1025.59 143.54 1025.96 143.91 L 1025.96 143.91 Q 1026.33 144.53 1026.08 144.91 L 1026.08 144.91 Q 1021.74 148.75 1017.22 150.42 Q 1012.69 152.1 1007.98 152.1 Z M 993.97 117.5 L 1017.53 117.01 Q 1017.53 110.93 1015.17 107.71 L 1015.17 107.71 Q 1012.44 104.11 1007.36 104.11 L 1007.36 104.11 Q 1000.79 104.11 997.19 109.32 L 997.19 109.32 Q 994.83 112.67 993.97 117.5 L 993.97 117.5 Z M 1045.91 110.31 L 1045.91 110.31 Q 1045.91 113.53 1047.59 115.77 Q 1049.26 118 1051.8 119.55 Q 1054.35 121.1 1057.2 122.59 L 1057.2 122.59 Q 1060.42 124.2 1063.27 126 Q 1066.13 127.79 1067.99 130.34 Q 1069.85 132.88 1069.85 136.97 L 1069.85 136.97 Q 1069.85 140.94 1067.86 144.35 Q 1065.88 147.76 1061.97 149.87 Q 1058.07 151.97 1052.36 151.97 L 1052.36 151.97 Q 1049.26 151.97 1046.41 151.17 Q 1043.56 150.36 1040.46 148.25 L 1040.46 148.25 Q 1040.21 148.01 1039.96 147.63 Q 1039.71 147.26 1039.71 146.77 L 1039.71 146.77 L 1039.47 137.09 Q 1039.47 136.72 1040.15 136.66 Q 1040.83 136.6 1040.95 136.97 L 1040.95 136.97 Q 1042.44 141.19 1044.67 143.98 Q 1046.91 146.77 1049.76 148.19 Q 1052.61 149.62 1055.83 149.62 L 1055.83 149.62 Q 1059.8 149.62 1061.97 147.63 Q 1064.14 145.65 1064.02 141.81 L 1064.02 141.81 Q 1063.89 138.21 1062.16 135.98 Q 1060.42 133.75 1057.88 132.2 Q 1055.34 130.65 1052.61 129.28 L 1052.61 129.28 Q 1049.51 127.79 1046.72 126.12 Q 1043.93 124.45 1042.13 121.84 Q 1040.33 119.24 1040.33 115.02 L 1040.33 115.02 Q 1040.33 110.19 1042.81 107.15 Q 1045.29 104.11 1049.14 102.68 Q 1052.98 101.26 1057.2 101.26 L 1057.2 101.26 Q 1059.55 101.26 1061.79 101.63 Q 1064.02 102 1066.25 103.12 L 1066.25 103.12 Q 1067.37 103.49 1067.37 104.48 L 1067.37 104.48 Q 1067.37 106.47 1067.24 108.64 Q 1067.12 110.81 1067.12 113.53 L 1067.12 113.53 Q 1067.12 113.78 1066.37 113.78 Q 1065.63 113.78 1065.63 113.53 L 1065.63 113.53 Q 1065.63 110.68 1063.65 108.45 Q 1061.66 106.22 1058.69 104.92 Q 1055.71 103.61 1052.73 103.61 L 1052.73 103.61 Q 1049.76 103.61 1047.84 105.23 Q 1045.91 106.84 1045.91 110.31 Z" fill="#102F27" />
<path d="M 530.34 192.27 L 530.34 192.27 Q 528.1 192.27 526.21 191.53 Q 524.32 190.79 522.93 189.43 Q 521.55 188.07 520.76 186.25 Q 519.98 184.43 519.98 182.25 L 519.98 182.25 Q 519.98 180.06 520.76 178.24 Q 521.55 176.42 522.95 175.06 Q 524.35 173.71 526.24 172.96 Q 528.13 172.22 530.37 172.22 L 530.37 172.22 Q 532.63 172.22 534.55 172.99 Q 536.47 173.76 537.81 175.27 L 537.81 175.27 L 535.99 177.04 Q 534.87 175.86 533.47 175.29 Q 532.07 174.71 530.48 174.71 L 530.48 174.71 Q 528.83 174.71 527.41 175.27 Q 526 175.83 524.96 176.84 Q 523.93 177.85 523.35 179.24 Q 522.78 180.62 522.78 182.25 L 522.78 182.25 Q 522.78 183.87 523.35 185.26 Q 523.93 186.64 524.96 187.65 Q 526 188.66 527.41 189.22 Q 528.83 189.78 530.48 189.78 L 530.48 189.78 Q 532.07 189.78 533.47 189.2 Q 534.87 188.63 535.99 187.43 L 535.99 187.43 L 537.81 189.19 Q 536.47 190.7 534.55 191.49 Q 532.63 192.27 530.34 192.27 Z M 559.09 192.27 L 559.09 192.27 Q 556.85 192.27 554.93 191.51 Q 553.01 190.76 551.61 189.4 Q 550.21 188.04 549.43 186.22 Q 548.64 184.4 548.64 182.25 L 548.64 182.25 Q 548.64 180.09 549.43 178.27 Q 550.21 176.45 551.61 175.09 Q 553.01 173.74 554.91 172.98 Q 556.82 172.22 559.09 172.22 L 559.09 172.22 Q 561.33 172.22 563.22 172.96 Q 565.11 173.71 566.52 175.06 Q 567.93 176.42 568.7 178.24 Q 569.47 180.06 569.47 182.25 L 569.47 182.25 Q 569.47 184.43 568.7 186.25 Q 567.93 188.07 566.52 189.43 Q 565.11 190.79 563.22 191.53 Q 561.33 192.27 559.09 192.27 Z M 559.09 189.78 L 559.09 189.78 Q 560.71 189.78 562.1 189.22 Q 563.48 188.66 564.5 187.64 Q 565.53 186.62 566.1 185.24 Q 566.67 183.87 566.67 182.25 L 566.67 182.25 Q 566.67 180.62 566.1 179.25 Q 565.53 177.88 564.5 176.86 Q 563.48 175.83 562.1 175.27 Q 560.71 174.71 559.09 174.71 L 559.09 174.71 Q 557.43 174.71 556.05 175.27 Q 554.66 175.83 553.63 176.86 Q 552.59 177.88 552.02 179.25 Q 551.44 180.62 551.44 182.25 L 551.44 182.25 Q 551.44 183.87 552.02 185.24 Q 552.59 186.62 553.63 187.64 Q 554.66 188.66 556.05 189.22 Q 557.43 189.78 559.09 189.78 Z M 585.26 192.05 L 582.46 192.05 L 582.46 172.45 L 584.75 172.45 L 596.51 187.06 L 596.51 172.45 L 599.31 172.45 L 599.31 192.05 L 597.02 192.05 L 585.26 177.43 L 585.26 192.05 Z M 619.61 192.27 L 619.61 192.27 Q 617.37 192.27 615.32 191.58 Q 613.28 190.9 612.1 189.81 L 612.1 189.81 L 613.14 187.62 Q 614.26 188.6 615.99 189.25 Q 617.73 189.89 619.61 189.89 L 619.61 189.89 Q 621.31 189.89 622.38 189.5 Q 623.44 189.11 623.95 188.42 Q 624.45 187.74 624.45 186.87 L 624.45 186.87 Q 624.45 185.86 623.79 185.24 Q 623.13 184.63 622.08 184.25 Q 621.03 183.87 619.77 183.59 Q 618.51 183.31 617.24 182.93 Q 615.97 182.56 614.92 181.97 Q 613.87 181.38 613.22 180.38 Q 612.58 179.39 612.58 177.82 L 612.58 177.82 Q 612.58 176.31 613.38 175.04 Q 614.17 173.76 615.84 172.99 Q 617.51 172.22 620.08 172.22 L 620.08 172.22 Q 621.79 172.22 623.47 172.67 Q 625.15 173.12 626.38 173.96 L 626.38 173.96 L 625.46 176.2 Q 624.2 175.36 622.8 174.98 Q 621.4 174.6 620.08 174.6 L 620.08 174.6 Q 618.43 174.6 617.37 175.02 Q 616.3 175.44 615.81 176.14 Q 615.32 176.84 615.32 177.71 L 615.32 177.71 Q 615.32 178.75 615.98 179.36 Q 616.64 179.98 617.69 180.34 Q 618.74 180.71 620 181 Q 621.26 181.3 622.53 181.66 Q 623.81 182.02 624.86 182.61 Q 625.91 183.2 626.55 184.18 Q 627.19 185.16 627.19 186.7 L 627.19 186.7 Q 627.19 188.18 626.38 189.46 Q 625.57 190.73 623.88 191.5 Q 622.18 192.27 619.61 192.27 Z M 648.1 192.27 L 648.1 192.27 Q 644.24 192.27 642.03 190.06 Q 639.81 187.85 639.81 183.59 L 639.81 183.59 L 639.81 172.45 L 642.61 172.45 L 642.61 183.48 Q 642.61 186.75 644.06 188.27 Q 645.5 189.78 648.13 189.78 L 648.13 189.78 Q 650.79 189.78 652.23 188.27 Q 653.67 186.75 653.67 183.48 L 653.67 183.48 L 653.67 172.45 L 656.39 172.45 L 656.39 183.59 Q 656.39 187.85 654.19 190.06 Q 651.99 192.27 648.1 192.27 Z M 684.24 192.05 L 670.83 192.05 L 670.83 172.45 L 673.63 172.45 L 673.63 189.61 L 684.24 189.61 L 684.24 192.05 Z M 702.83 192.05 L 700.05 192.05 L 700.05 174.88 L 693.33 174.88 L 693.33 172.45 L 709.55 172.45 L 709.55 174.88 L 702.83 174.88 L 702.83 192.05 Z M 730.15 192.27 L 730.15 192.27 Q 727.91 192.27 725.99 191.51 Q 724.07 190.76 722.67 189.4 Q 721.27 188.04 720.49 186.22 Q 719.7 184.4 719.7 182.25 L 719.7 182.25 Q 719.7 180.09 720.49 178.27 Q 721.27 176.45 722.67 175.09 Q 724.07 173.74 725.97 172.98 Q 727.88 172.22 730.15 172.22 L 730.15 172.22 Q 732.39 172.22 734.28 172.96 Q 736.17 173.71 737.58 175.06 Q 738.99 176.42 739.76 178.24 Q 740.53 180.06 740.53 182.25 L 740.53 182.25 Q 740.53 184.43 739.76 186.25 Q 738.99 188.07 737.58 189.43 Q 736.17 190.79 734.28 191.53 Q 732.39 192.27 730.15 192.27 Z M 730.15 189.78 L 730.15 189.78 Q 731.77 189.78 733.16 189.22 Q 734.54 188.66 735.56 187.64 Q 736.59 186.62 737.16 185.24 Q 737.73 183.87 737.73 182.25 L 737.73 182.25 Q 737.73 180.62 737.16 179.25 Q 736.59 177.88 735.56 176.86 Q 734.54 175.83 733.16 175.27 Q 731.77 174.71 730.15 174.71 L 730.15 174.71 Q 728.49 174.71 727.11 175.27 Q 725.72 175.83 724.69 176.86 Q 723.65 177.88 723.08 179.25 Q 722.5 180.62 722.5 182.25 L 722.5 182.25 Q 722.5 183.87 723.08 185.24 Q 723.65 186.62 724.69 187.64 Q 725.72 188.66 727.11 189.22 Q 728.49 189.78 730.15 189.78 Z M 756.32 192.05 L 753.52 192.05 L 753.52 172.45 L 761.16 172.45 Q 764.97 172.45 767.15 174.25 Q 769.34 176.06 769.34 179.28 L 769.34 179.28 Q 769.34 181.41 768.36 182.93 Q 767.38 184.46 765.56 185.27 L 765.56 185.27 Q 765.31 185.38 765.03 185.5 L 765.03 185.5 L 769.67 192.05 L 766.62 192.05 L 762.39 186.03 Q 761.81 186.08 761.16 186.08 L 761.16 186.08 L 756.32 186.08 L 756.32 192.05 Z M 756.32 174.88 L 756.32 183.7 L 761.08 183.7 Q 763.77 183.7 765.15 182.54 Q 766.54 181.38 766.54 179.28 Q 766.54 177.18 765.15 176.03 Q 763.77 174.88 761.08 174.88 L 761.08 174.88 L 756.32 174.88 Z M 785.37 192.05 L 782.57 192.05 L 782.57 172.45 L 785.37 172.45 L 785.37 192.05 Z M 799.87 192.05 L 796.99 192.05 L 805.86 172.45 L 808.63 172.45 L 817.54 192.05 L 814.6 192.05 L 812.44 187.15 L 802.03 187.15 L 799.87 192.05 Z M 803.01 184.91 L 811.46 184.91 L 807.23 175.3 L 803.01 184.91 Z" fill="#6B7F75" />
</svg>
